<mxfile host="app.diagrams.net" agent="Mozilla/5.0 (X11; Linux x86_64) AppleWebKit/537.36 (KHTML, like Gecko) Chrome/132.0.0.0 Safari/537.36" version="26.0.6">
  <diagram id="UOXN40VcB8J7U4mDUD6y" name="PÃ¡gina-1">
    <mxGraphModel dx="956" dy="530" grid="1" gridSize="10" guides="1" tooltips="1" connect="1" arrows="1" fold="1" page="1" pageScale="1" pageWidth="827" pageHeight="1169" math="0" shadow="0">
      <root>
        <mxCell id="0" />
        <mxCell id="1" parent="0" />
        <mxCell id="0vmlNwfWL53SqXTow_9W-1" value="PowerBoard" style="rounded=0;whiteSpace=wrap;html=1;container=1;verticalAlign=top;fontStyle=1;fontSize=15;" parent="1" vertex="1">
          <mxGeometry x="60" y="840" width="564" height="390" as="geometry">
            <mxRectangle x="100" y="940" width="288" height="170" as="alternateBounds" />
          </mxGeometry>
        </mxCell>
        <mxCell id="kVmouNj2UzlXap2N-P90-6" value="" style="edgeStyle=orthogonalEdgeStyle;rounded=0;orthogonalLoop=1;jettySize=auto;html=1;fillColor=#f8cecc;gradientColor=#ea6b66;strokeColor=#b85450;" edge="1" parent="0vmlNwfWL53SqXTow_9W-1" source="0vmlNwfWL53SqXTow_9W-4" target="kVmouNj2UzlXap2N-P90-4">
          <mxGeometry relative="1" as="geometry" />
        </mxCell>
        <mxCell id="0vmlNwfWL53SqXTow_9W-4" value="1s/2s" style="rounded=1;whiteSpace=wrap;html=1;fillColor=#f8cecc;strokeColor=#b85450;" parent="0vmlNwfWL53SqXTow_9W-1" vertex="1">
          <mxGeometry y="115" width="84.43508771929824" height="30" as="geometry" />
        </mxCell>
        <mxCell id="0vmlNwfWL53SqXTow_9W-5" value="5v" style="rounded=1;whiteSpace=wrap;html=1;fillColor=#f8cecc;strokeColor=#b85450;" parent="0vmlNwfWL53SqXTow_9W-1" vertex="1">
          <mxGeometry x="511.36" y="90" width="52.64" height="30" as="geometry" />
        </mxCell>
        <mxCell id="0vmlNwfWL53SqXTow_9W-6" value="3v3" style="rounded=1;whiteSpace=wrap;html=1;fillColor=#f8cecc;strokeColor=#b85450;" parent="0vmlNwfWL53SqXTow_9W-1" vertex="1">
          <mxGeometry x="511.36" y="140" width="52.64" height="30" as="geometry" />
        </mxCell>
        <mxCell id="0vmlNwfWL53SqXTow_9W-7" style="edgeStyle=orthogonalEdgeStyle;rounded=0;orthogonalLoop=1;jettySize=auto;html=1;exitX=1;exitY=0.5;exitDx=0;exitDy=0;entryX=0.5;entryY=1;entryDx=0;entryDy=0;" parent="0vmlNwfWL53SqXTow_9W-1" source="0vmlNwfWL53SqXTow_9W-8" target="0vmlNwfWL53SqXTow_9W-17" edge="1">
          <mxGeometry relative="1" as="geometry" />
        </mxCell>
        <mxCell id="0vmlNwfWL53SqXTow_9W-8" value="USB_charge" style="rounded=1;whiteSpace=wrap;html=1;fillColor=#f8cecc;strokeColor=#b85450;" parent="0vmlNwfWL53SqXTow_9W-1" vertex="1">
          <mxGeometry y="330" width="84.43508771929824" height="30" as="geometry" />
        </mxCell>
        <mxCell id="0vmlNwfWL53SqXTow_9W-10" value="Current&lt;div&gt;Sens&lt;/div&gt;" style="rounded=1;whiteSpace=wrap;html=1;fillColor=#f5f5f5;fontColor=#333333;strokeColor=#666666;" parent="0vmlNwfWL53SqXTow_9W-1" vertex="1">
          <mxGeometry x="321.26" y="80" width="45.29" height="100" as="geometry" />
        </mxCell>
        <mxCell id="0vmlNwfWL53SqXTow_9W-11" style="edgeStyle=none;curved=1;rounded=0;orthogonalLoop=1;jettySize=auto;html=1;entryX=0;entryY=0.5;entryDx=0;entryDy=0;fontFamily=Architects Daughter;fontSource=https%3A%2F%2Ffonts.googleapis.com%2Fcss%3Ffamily%3DArchitects%2BDaughter;fontSize=16;startSize=14;endArrow=classicThin;endSize=9;sourcePerimeterSpacing=8;targetPerimeterSpacing=8;endFill=1;fillColor=#f8cecc;strokeColor=#b85450;exitX=1;exitY=0.25;exitDx=0;exitDy=0;gradientColor=#ea6b66;" parent="0vmlNwfWL53SqXTow_9W-1" source="0vmlNwfWL53SqXTow_9W-10" target="0vmlNwfWL53SqXTow_9W-5" edge="1">
          <mxGeometry relative="1" as="geometry">
            <mxPoint x="391.04" y="115" as="sourcePoint" />
          </mxGeometry>
        </mxCell>
        <mxCell id="0vmlNwfWL53SqXTow_9W-12" style="edgeStyle=none;curved=1;rounded=0;orthogonalLoop=1;jettySize=auto;html=1;entryX=0;entryY=0.5;entryDx=0;entryDy=0;fontFamily=Architects Daughter;fontSource=https%3A%2F%2Ffonts.googleapis.com%2Fcss%3Ffamily%3DArchitects%2BDaughter;fontSize=16;startSize=14;endArrow=classicThin;endSize=9;sourcePerimeterSpacing=8;targetPerimeterSpacing=8;endFill=1;fillColor=#f8cecc;strokeColor=#b85450;exitX=1;exitY=0.75;exitDx=0;exitDy=0;gradientColor=#ea6b66;" parent="0vmlNwfWL53SqXTow_9W-1" source="0vmlNwfWL53SqXTow_9W-10" target="0vmlNwfWL53SqXTow_9W-6" edge="1">
          <mxGeometry relative="1" as="geometry">
            <mxPoint x="316.63157894736844" y="165" as="sourcePoint" />
          </mxGeometry>
        </mxCell>
        <mxCell id="0vmlNwfWL53SqXTow_9W-13" style="edgeStyle=orthogonalEdgeStyle;rounded=0;orthogonalLoop=1;jettySize=auto;html=1;exitX=0.5;exitY=1;exitDx=0;exitDy=0;fontFamily=Architects Daughter;fontSource=https%3A%2F%2Ffonts.googleapis.com%2Fcss%3Ffamily%3DArchitects%2BDaughter;fontSize=16;startSize=6;endArrow=classicThin;endSize=6;sourcePerimeterSpacing=8;targetPerimeterSpacing=8;endFill=1;entryX=0.75;entryY=0;entryDx=0;entryDy=0;fillColor=#dae8fc;strokeColor=#6c8ebf;gradientColor=#7ea6e0;" parent="0vmlNwfWL53SqXTow_9W-1" source="0vmlNwfWL53SqXTow_9W-10" target="kVmouNj2UzlXap2N-P90-1" edge="1">
          <mxGeometry relative="1" as="geometry">
            <mxPoint x="284.9684210526315" y="249.99999999999977" as="targetPoint" />
            <mxPoint x="240.64" y="181.11999999999966" as="sourcePoint" />
          </mxGeometry>
        </mxCell>
        <mxCell id="0vmlNwfWL53SqXTow_9W-14" value="" style="edgeStyle=none;curved=1;rounded=0;orthogonalLoop=1;jettySize=auto;html=1;fontFamily=Architects Daughter;fontSource=https%3A%2F%2Ffonts.googleapis.com%2Fcss%3Ffamily%3DArchitects%2BDaughter;fontSize=16;endArrow=classicThin;sourcePerimeterSpacing=8;targetPerimeterSpacing=8;endFill=1;entryX=0;entryY=0.5;entryDx=0;entryDy=0;exitX=1;exitY=0.5;exitDx=0;exitDy=0;fillColor=#f8cecc;strokeColor=#b85450;gradientColor=#ea6b66;" parent="0vmlNwfWL53SqXTow_9W-1" source="0vmlNwfWL53SqXTow_9W-15" target="0vmlNwfWL53SqXTow_9W-10" edge="1">
          <mxGeometry relative="1" as="geometry" />
        </mxCell>
        <mxCell id="kVmouNj2UzlXap2N-P90-2" style="edgeStyle=orthogonalEdgeStyle;rounded=0;orthogonalLoop=1;jettySize=auto;html=1;exitX=0.5;exitY=1;exitDx=0;exitDy=0;entryX=0.5;entryY=0;entryDx=0;entryDy=0;fillColor=#f8cecc;strokeColor=#b85450;gradientColor=#ea6b66;" edge="1" parent="0vmlNwfWL53SqXTow_9W-1" source="0vmlNwfWL53SqXTow_9W-15" target="kVmouNj2UzlXap2N-P90-1">
          <mxGeometry relative="1" as="geometry" />
        </mxCell>
        <mxCell id="kVmouNj2UzlXap2N-P90-3" value="On/Off" style="edgeLabel;html=1;align=center;verticalAlign=middle;resizable=0;points=[];" vertex="1" connectable="0" parent="kVmouNj2UzlXap2N-P90-2">
          <mxGeometry x="0.1905" relative="1" as="geometry">
            <mxPoint as="offset" />
          </mxGeometry>
        </mxCell>
        <mxCell id="0vmlNwfWL53SqXTow_9W-15" value="Lineal" style="rounded=1;whiteSpace=wrap;html=1;fillColor=#f5f5f5;fontColor=#333333;strokeColor=#666666;" parent="0vmlNwfWL53SqXTow_9W-1" vertex="1">
          <mxGeometry x="256.91999999999996" y="80" width="36.68" height="100" as="geometry" />
        </mxCell>
        <mxCell id="0vmlNwfWL53SqXTow_9W-16" style="edgeStyle=orthogonalEdgeStyle;rounded=0;orthogonalLoop=1;jettySize=auto;html=1;exitX=0.5;exitY=0;exitDx=0;exitDy=0;entryX=1;entryY=0.5;entryDx=0;entryDy=0;" parent="0vmlNwfWL53SqXTow_9W-1" source="0vmlNwfWL53SqXTow_9W-17" target="0vmlNwfWL53SqXTow_9W-18" edge="1">
          <mxGeometry relative="1" as="geometry" />
        </mxCell>
        <mxCell id="0vmlNwfWL53SqXTow_9W-17" value="BMS" style="rounded=1;whiteSpace=wrap;html=1;fillColor=#f5f5f5;fontColor=#333333;strokeColor=#666666;" parent="0vmlNwfWL53SqXTow_9W-1" vertex="1">
          <mxGeometry x="94.98947368421052" y="260" width="52.7719298245614" height="50" as="geometry" />
        </mxCell>
        <mxCell id="0vmlNwfWL53SqXTow_9W-18" value="LIPO&lt;div&gt;Charge&lt;/div&gt;" style="rounded=1;whiteSpace=wrap;html=1;fillColor=#f8cecc;strokeColor=#b85450;" parent="0vmlNwfWL53SqXTow_9W-1" vertex="1">
          <mxGeometry y="220" width="84.43508771929824" height="30" as="geometry" />
        </mxCell>
        <mxCell id="0vmlNwfWL53SqXTow_9W-19" value="" style="edgeStyle=orthogonalEdgeStyle;rounded=0;orthogonalLoop=1;jettySize=auto;html=1;fillColor=#f8cecc;strokeColor=#b85450;gradientColor=#ea6b66;" parent="0vmlNwfWL53SqXTow_9W-1" source="0vmlNwfWL53SqXTow_9W-20" target="0vmlNwfWL53SqXTow_9W-15" edge="1">
          <mxGeometry relative="1" as="geometry" />
        </mxCell>
        <mxCell id="0vmlNwfWL53SqXTow_9W-20" value="Buck-boost" style="rounded=1;whiteSpace=wrap;html=1;fillColor=#f5f5f5;fontColor=#333333;strokeColor=#666666;" parent="0vmlNwfWL53SqXTow_9W-1" vertex="1">
          <mxGeometry x="188" y="80" width="50.51" height="100" as="geometry" />
        </mxCell>
        <mxCell id="0vmlNwfWL53SqXTow_9W-35" value="LiPoBypass" style="rounded=1;whiteSpace=wrap;html=1;fillColor=#f8cecc;strokeColor=#b85450;" parent="0vmlNwfWL53SqXTow_9W-1" vertex="1">
          <mxGeometry x="470" y="25" width="94" height="30" as="geometry" />
        </mxCell>
        <mxCell id="0vmlNwfWL53SqXTow_9W-40" value="x2" style="text;html=1;align=center;verticalAlign=middle;resizable=0;points=[];autosize=1;strokeColor=none;fillColor=none;fontStyle=1" parent="0vmlNwfWL53SqXTow_9W-1" vertex="1">
          <mxGeometry x="262.00000000000006" y="180" width="40" height="30" as="geometry" />
        </mxCell>
        <mxCell id="0vmlNwfWL53SqXTow_9W-41" value="x2" style="text;html=1;align=center;verticalAlign=middle;resizable=0;points=[];autosize=1;strokeColor=none;fillColor=none;fontStyle=1" parent="0vmlNwfWL53SqXTow_9W-1" vertex="1">
          <mxGeometry x="316.24" y="200" width="40" height="30" as="geometry" />
        </mxCell>
        <mxCell id="0vmlNwfWL53SqXTow_9W-42" style="edgeStyle=orthogonalEdgeStyle;rounded=0;orthogonalLoop=1;jettySize=auto;html=1;exitX=1;exitY=0.5;exitDx=0;exitDy=0;entryX=0;entryY=0.5;entryDx=0;entryDy=0;fillColor=#f8cecc;gradientColor=#ea6b66;strokeColor=#b85450;" parent="0vmlNwfWL53SqXTow_9W-1" source="0vmlNwfWL53SqXTow_9W-43" target="0vmlNwfWL53SqXTow_9W-35" edge="1">
          <mxGeometry relative="1" as="geometry" />
        </mxCell>
        <mxCell id="0vmlNwfWL53SqXTow_9W-43" value="SW-Switch" style="rounded=1;whiteSpace=wrap;html=1;fillColor=#f5f5f5;fontColor=#333333;strokeColor=#666666;" parent="0vmlNwfWL53SqXTow_9W-1" vertex="1">
          <mxGeometry x="356.24" y="20" width="60" height="40" as="geometry" />
        </mxCell>
        <mxCell id="0vmlNwfWL53SqXTow_9W-44" value="Solar_In?" style="rounded=1;whiteSpace=wrap;html=1;fillColor=#f8cecc;strokeColor=#b85450;" parent="0vmlNwfWL53SqXTow_9W-1" vertex="1">
          <mxGeometry y="30" width="84.43508771929824" height="30" as="geometry" />
        </mxCell>
        <mxCell id="kVmouNj2UzlXap2N-P90-12" style="edgeStyle=orthogonalEdgeStyle;rounded=0;orthogonalLoop=1;jettySize=auto;html=1;exitX=1;exitY=0.5;exitDx=0;exitDy=0;entryX=0;entryY=0.5;entryDx=0;entryDy=0;" edge="1" parent="0vmlNwfWL53SqXTow_9W-1" source="kVmouNj2UzlXap2N-P90-1" target="kVmouNj2UzlXap2N-P90-11">
          <mxGeometry relative="1" as="geometry" />
        </mxCell>
        <mxCell id="kVmouNj2UzlXap2N-P90-1" value="STM32L0" style="rounded=0;whiteSpace=wrap;html=1;fillColor=#cce5ff;strokeColor=#36393d;" vertex="1" parent="0vmlNwfWL53SqXTow_9W-1">
          <mxGeometry x="229.26" y="280" width="92" height="65" as="geometry" />
        </mxCell>
        <mxCell id="kVmouNj2UzlXap2N-P90-7" style="edgeStyle=orthogonalEdgeStyle;rounded=0;orthogonalLoop=1;jettySize=auto;html=1;exitX=0.5;exitY=1;exitDx=0;exitDy=0;entryX=0.25;entryY=0;entryDx=0;entryDy=0;fillColor=#dae8fc;gradientColor=#7ea6e0;strokeColor=#6c8ebf;" edge="1" parent="0vmlNwfWL53SqXTow_9W-1" source="kVmouNj2UzlXap2N-P90-4" target="kVmouNj2UzlXap2N-P90-1">
          <mxGeometry relative="1" as="geometry">
            <Array as="points">
              <mxPoint x="135" y="230" />
              <mxPoint x="252" y="230" />
            </Array>
          </mxGeometry>
        </mxCell>
        <mxCell id="kVmouNj2UzlXap2N-P90-8" style="edgeStyle=orthogonalEdgeStyle;rounded=0;orthogonalLoop=1;jettySize=auto;html=1;exitX=1;exitY=0.5;exitDx=0;exitDy=0;entryX=0;entryY=0.5;entryDx=0;entryDy=0;fillColor=#f8cecc;gradientColor=#ea6b66;strokeColor=#b85450;" edge="1" parent="0vmlNwfWL53SqXTow_9W-1" source="kVmouNj2UzlXap2N-P90-4" target="0vmlNwfWL53SqXTow_9W-20">
          <mxGeometry relative="1" as="geometry">
            <Array as="points">
              <mxPoint x="170" y="130" />
              <mxPoint x="170" y="130" />
            </Array>
          </mxGeometry>
        </mxCell>
        <mxCell id="kVmouNj2UzlXap2N-P90-13" style="edgeStyle=orthogonalEdgeStyle;rounded=0;orthogonalLoop=1;jettySize=auto;html=1;exitX=1;exitY=0.5;exitDx=0;exitDy=0;entryX=0;entryY=0.5;entryDx=0;entryDy=0;fillColor=#f8cecc;gradientColor=#ea6b66;strokeColor=#b85450;" edge="1" parent="0vmlNwfWL53SqXTow_9W-1" source="kVmouNj2UzlXap2N-P90-4" target="0vmlNwfWL53SqXTow_9W-43">
          <mxGeometry relative="1" as="geometry">
            <Array as="points">
              <mxPoint x="170" y="130" />
              <mxPoint x="170" y="40" />
            </Array>
          </mxGeometry>
        </mxCell>
        <mxCell id="kVmouNj2UzlXap2N-P90-4" value="Current&lt;div&gt;Sens&lt;/div&gt;" style="rounded=1;whiteSpace=wrap;html=1;fillColor=#f5f5f5;fontColor=#333333;strokeColor=#666666;" vertex="1" parent="0vmlNwfWL53SqXTow_9W-1">
          <mxGeometry x="109.99999999999997" y="107.5" width="49.05" height="45" as="geometry" />
        </mxCell>
        <mxCell id="kVmouNj2UzlXap2N-P90-11" value="I2c/SPI?" style="rounded=1;whiteSpace=wrap;html=1;fillColor=#f8cecc;strokeColor=#b85450;" vertex="1" parent="0vmlNwfWL53SqXTow_9W-1">
          <mxGeometry x="511.36" y="297.5" width="52.64" height="30" as="geometry" />
        </mxCell>
      </root>
    </mxGraphModel>
  </diagram>
</mxfile>
